<svg xmlns="http://www.w3.org/2000/svg" width="514" height="78.394" viewBox="0 0 514 78.394">
  <g id="グループ化_61" data-name="グループ化 61" transform="translate(-0.604 -928.409)">
    <path id="パス_33" data-name="パス 33" d="M76.961,996.3l-9.113,2.01-23.467.022V963.446l.956-.255,18.032-2.313-9.2,5.1,2.932,1.933,13.175-8.323-1.462-3.725-8.034,2.4-16.4,2.105V932.319l1.654-2.1-17.257-1.146v69.256H.6l.806,4.273,8.675-1.444,67.959-.012Z" transform="translate(0 0.475)" fill="#fff"/>
    <g id="グループ化_9" data-name="グループ化 9" transform="translate(87.612 930.659)">
      <path id="パス_34" data-name="パス 34" d="M85.7,929.889l-2.924,1.12H68.242L54.78,929.856v40.258H67.527v-4.492h4.461v11.8H53.133l.617,4.194,8.119-1.191,10.118-.01v4.532L51.4,994.2l3.288,10.843,2.193-2.039.292-.034a91.351,91.351,0,0,0,18.451-3.833,76.659,76.659,0,0,0,15.824-7.886l-.237-1.674c-3.442.711-7.011,1.329-10.626,1.84l-1.017.142v-7.029l10-4.766-1.019-3.716-8.983,1.538V965.622h4.371v3.61h3.831V934.6l1.6-2.229ZM71.988,992.4l-.8.086c-.924.1-1.9.168-2.9.238-.839.06-1.691.122-2.547.2l-5.028.471L71.988,988.1Zm0-29.857h-5.25l5.25-4.48Zm0-8.131-4.461,3.668v-8.484h4.461Zm0-7.812H67.527V934h4.461ZM83.936,962.54H79.564V951.655l3.149-2.678-1.175-3.595-1.974.308V938.44l1.346-1.607L77.637,934h6.3Z" transform="translate(-51.396 -929.624)" fill="#fff"/>
      <path id="パス_35" data-name="パス 35" d="M103.646,955.915l-9.818.027,7.788-3.714a22.34,22.34,0,0,0-4.546-5.03l-.983-.8,1.1-.637a42.04,42.04,0,0,0,12.927-11.035l.285-.248,2.084-1.15-10.717-3.6L94.5,931.088l-18.882.014.794,4.119,7.717-1.112,10.6-.01-.451,1.189a36.561,36.561,0,0,1-3.831,7.132l-.408.612-.683-.281a49.794,49.794,0,0,0-8.813-2.69l-1.471,1.066a77.116,77.116,0,0,1,11.9,13.441l.943,1.376H74.01l.8,4.266,7.155-1.257,3.366-.015v38.847H84.44c-2.264,0-5.073-.225-8.721-.55l-.3,1.6a46.957,46.957,0,0,0,11.991,7.028l12.362-1.384V964.054l1.751-1.876-3.787-3.242h6.469l-.067.942c-.05.685-.1,1.374-.165,2.063l.11.1-.132.14a123.812,123.812,0,0,1-1.792,12.432l1.7.295c5.092-4.773,8.228-9.668,9.585-14.95l.063-.25,1.976-1.826-7.055-3.122Z" transform="translate(-35.228 -929.721)" fill="#fff"/>
    </g>
    <path id="パス_36" data-name="パス 36" d="M173.12,945.8l-16.348.692,3.3,47.365-16.466,1.09v-62.53l1.357-1.842-9.916-.631v65.589l-17.719,1.18,3.111-47.841,1.548-2.175-16.24-.99-3.283,54.337,13.558.726,1.467-1.194,42.825-2.9.356,6.008,15.062-.709-3.7-53.847Z" transform="translate(72.632 1.098)" fill="#fff"/>
    <g id="グループ化_10" data-name="グループ化 10" transform="translate(259.195 928.409)">
      <path id="パス_37" data-name="パス 37" d="M213.817,957.891a29.907,29.907,0,0,0-8.71-8.263l-.864-.537.655-.775a30.279,30.279,0,0,0,5.284-9.259l.089-.238,2.156-1.643-8.371-3.768-5.51,1.173-4.9.135.545-2.151,2.034-1.394-8.24-2.763a72.61,72.61,0,0,1-12.451,23.732l1.61.683c6.529-4.263,11.4-9.2,14.468-14.684l.24-.431,5.778-.257-.484,1.254a48.984,48.984,0,0,1-2.452,5.387l-.341.641-.7-.206c-.761-.226-1.588-.453-2.423-.677l-1.573,1.116,2.979,2.454-.513.672a50.726,50.726,0,0,1-15.277,12.871l1.307,1.24c2.895-.751,6.195-1.645,9.2-2.686l-.1-.009,3.473-1.392a44.591,44.591,0,0,0,7.345-3.805l.691-.436.5.645c1.348,1.742,2.471,3.322,3.435,4.823l.376.592.062-.086.518.99-.019,0,.177.35c.226.449.453.9.7,1.35Z" transform="translate(-134.42 -928.409)" fill="#fff"/>
      <path id="パス_38" data-name="パス 38" d="M186.164,962.033H183.8l8.04-15.295,2.187-1L195.5,938.8c-3.49-1.785-8.427-2.711-14.7-2.752l-1.2,1.5a50.018,50.018,0,0,1,8.578,7.528l.4.461-9.986,18.238-.734-1.648a29.71,29.71,0,0,0-3.974-6.317l-1.425.37.045.214c.388,1.844.71,3.684,1.022,5.467l.3,1.7-9.83,1.444,1.514-1.78c1.912-2.248,3.718-4.768,5.387-7.157l.885-1.309c2.187-3.24,4.133-6.546,6.381-10.511l.134-.233,2.089-1.059-10.563-6.089a139.688,139.688,0,0,1-8.664,16.547l-.525.86-2.3-1.818.406-.661a135.014,135.014,0,0,0,8.679-16.54l.1-.238,2.207-1.453-8.469-4.6a129.043,129.043,0,0,1-9.285,21.342l7.277,6.387-.442.641c-2.389,3.453-4.809,6.708-7.2,9.687l1.708,4.115,6.419-2.27,1.816-.272v20.14l-4.462,4.41.557-2.829c.731-3.708,1.295-7.563,1.681-11.455l.027-.269,2.01-2.393-7.707-1.556c-.377,7.861-1.084,15.87-2.1,23.829l2.735,1.1,7.259-7.275v13.688h10.432V981.575l1.857-1.837.19,1.845c.6,5.813.959,10.876,1.127,15.839l4.793-.978,3.776,7.081.954-2.255,5.613-6.451.672.845a21.165,21.165,0,0,0,8.117,6.694c2.766,1.24,6.541,1.864,11.24,1.864h17.652a44.463,44.463,0,0,1,2.638-7.662h-20.29c-7.753,0-13.471-1.21-17-3.59l-.808-.548,1.312-1.556v-25.4l1.322-1.958-6.3-2.621Zm-3.032,29.743-2.626,2.162-.218-1.573a109.751,109.751,0,0,0-3.511-16.095l-3.4.322-1.389.92v-6.627l1.4-1.727-4.006-2.26,4.84-.687v1.917l.268-.329v2.512c0,.989.05,2.025.113,3.077l5.761-1.155a31.263,31.263,0,0,0-.772-5.7l-.182-.834,3.728-.92Z" transform="translate(-151.559 -928.013)" fill="#fff"/>
      <path id="パス_39" data-name="パス 39" d="M188.035,954.091h-9.72l.722,3.859,6.289-.853,2.708-.01v5.468h-8.619l.843,3.934,5.94-.926,1.836-.012v5.468h-10.41l.853,4.095,6.635-1.171,2.922-.015v6.347h11.59v-6.347h11.5l-.875-4.576L203.125,971l-3.5.024V968.1l8.228-2.855-.89-3.893-7.338,1.181v-5.446h9.928l-1.057-4.425-6.817,1.409-2.055.019v-4.42L201,947.7l-12.961-1.05Z" transform="translate(-132.922 -915.418)" fill="#fff"/>
    </g>
    <path id="パス_40" data-name="パス 40" d="M269.753,991.226H249.689V947.756l26.117-10.843-1.161-3.948-8.486,1.451-56.133.012.873,4.361,8.148-1.357,15.306-.012v53.806H203.239l.8,4.27,9.119-1.53,67.306-.012-1.288-5.091Zm-2.219-53.806-17.844,7.023v-2.532l1.568-1.617-3.3-2.874Z" transform="translate(144.488 3.258)" fill="#fff"/>
    <path id="パス_41" data-name="パス 41" d="M285.142,969.341h4.723V944.916l1.542-2.248-3.932-2.8-3.315,1.61H273.013l-14.354-1.489v17.27a175.819,175.819,0,0,1-5,40.75l1.555.466c9.417-11.9,15.021-23.142,16.652-33.416l.118-.746h13.157ZM272.229,961.5l.074-.95c.089-1.123.175-2.248.175-3.284V944.392h12.663V961.5Z" transform="translate(180.435 8.12)" fill="#fff"/>
    <path id="パス_42" data-name="パス 42" d="M312.57,963.832l1.506-1.76-4.253-2.717,8.878-1.047-1.456-4.626-8.04,2.856L290,958.726v-16.17l.833-.055c9.266-.6,16.928-2.267,22.78-4.939l.336-.082,2.567-.1-6.814-8.812a99.3,99.3,0,0,1-23.95,12.389l-.187.067-4.747-.454V960.47a191.8,191.8,0,0,1-5.527,45.17l1.545.4A85.124,85.124,0,0,0,290,962.305l.015-.778,8.311-.9-.031,1.014c-.437,13.486-.357,28.556.235,44.805h14.353c-.629-16.772-.737-30.621-.324-42.312Z" transform="translate(195.903 0.11)" fill="#fff"/>
    <path id="パス_43" data-name="パス 43" d="M265.15,934.79l18.183-.007-9.784,3.9,2.657,2.292,14.148-6.591-.966-3.883-8.279,1.366-25.1.012.794,4.039Z" transform="translate(182.115 1.492)" fill="#fff"/>
  </g>
</svg>
