<svg xmlns="http://www.w3.org/2000/svg" width="1577.813" height="240.643" viewBox="0 0 1577.813 240.643">
  <g id="グループ化_60" data-name="グループ化 60" transform="translate(-0.604 -928.409)">
    <path id="パス_33" data-name="パス 33" d="M234.769,1135.442l-27.946,6.171-71.968.067V1034.593l2.932-.784,55.3-7.1-28.2,15.656,8.992,5.935,40.406-25.552-4.483-11.434-24.637,7.377-50.3,6.463V939.038l5.072-6.447L87,929.074V1141.68H.6L3.076,1154.8l26.6-4.434,208.412-.037Z" transform="translate(0 2.829)"/>
    <g id="グループ化_9" data-name="グループ化 9" transform="translate(267.737 935.309)">
      <path id="パス_34" data-name="パス 34" d="M156.6,929.955l-8.967,3.44H103.059l-41.286-3.539V1053.44h39.093v-13.79h13.68v36.237H56.724l1.893,12.875,24.9-3.656,31.03-.031v13.911L51.4,1127.393l10.082,33.287,6.727-6.259.894-.105c22.415-2.635,41.454-6.6,56.586-11.765,14.763-5.039,31.088-13.18,48.528-24.209l-.726-5.138c-10.556,2.182-21.5,4.081-32.587,5.648l-3.119.437v-21.579l30.673-14.631-3.124-11.407-27.549,4.722v-36.742h13.406v11.081h11.749V944.424l4.918-6.842Zm-42.054,191.889-2.451.263c-2.835.3-5.822.515-8.9.731-2.572.184-5.186.374-7.81.616L79.965,1124.9l34.58-16.251Zm0-91.656h-16.1l16.1-13.753Zm0-24.961-13.68,11.26V990.444h13.68Zm0-23.983h-13.68V942.583h13.68Zm36.642,48.943H137.781V996.776l9.656-8.22-3.6-11.035-6.054.947V956.205l4.129-4.933-10.04-8.688h19.318Z" transform="translate(-51.396 -929.146)"/>
      <path id="パス_35" data-name="パス 35" d="M164.9,1010.132l-30.11.084,23.883-11.4a68.563,68.563,0,0,0-13.943-15.441l-3.014-2.462,3.366-1.956c17.025-9.893,30.357-21.285,39.645-33.875l.873-.763,6.39-3.529-32.866-11.066-22.263,4.2-57.906.042L81.389,946.6l23.667-3.414,32.5-.031-1.383,3.65c-2.461,6.522-6.306,13.675-11.749,21.9l-1.252,1.877-2.093-.863a152.592,152.592,0,0,0-27.028-8.257l-4.513,3.271a236.657,236.657,0,0,1,36.495,41.26l2.893,4.223H74.01l2.456,13.1,21.942-3.86,10.324-.047v119.251H106c-6.942,0-15.557-.689-26.744-1.689l-.91,4.923a143.979,143.979,0,0,0,36.774,21.574l37.91-4.25v-124.1l5.37-5.759-11.613-9.951h19.838l-.205,2.892c-.153,2.1-.316,4.218-.5,6.332l.337.294-.4.431a380.419,380.419,0,0,1-5.5,38.163l5.2.9c15.615-14.653,25.235-29.679,29.395-45.893l.195-.768,6.059-5.606-21.637-9.583Z" transform="translate(44.926 -929.722)"/>
    </g>
    <path id="パス_36" data-name="パス 36" d="M319.15,978.625l-50.134,2.124,10.114,145.406-50.5,3.346V937.539l4.16-5.656-30.41-1.938V1131.3l-54.339,3.622,9.541-146.867,4.748-6.677-49.8-3.04-10.069,166.81,41.58,2.228,4.5-3.667,131.334-8.9,1.093,18.446,46.192-2.176-11.343-165.3Z" transform="translate(433.856 6.542)"/>
    <g id="グループ化_10" data-name="グループ化 10" transform="translate(794.532 928.409)">
      <path id="パス_37" data-name="パス 37" d="M292.946,1018.823a91.724,91.724,0,0,0-26.712-25.34l-2.651-1.646,2.009-2.377a92.856,92.856,0,0,0,16.2-28.4l.273-.731,6.611-5.039L263.009,943.74l-16.9,3.6-15.037.416,1.672-6.6,6.238-4.276-25.271-8.473a222.672,222.672,0,0,1-38.183,72.779l4.939,2.094c20.022-13.075,34.949-28.222,44.368-45.031l.736-1.32,17.719-.789-1.483,3.845a150.094,150.094,0,0,1-7.521,16.52l-1.047,1.967-2.156-.631c-2.335-.694-4.87-1.388-7.432-2.077l-4.823,3.424,9.136,7.526-1.573,2.061c-11.323,14.837-27.075,28.106-46.851,39.472l4.008,3.8c8.878-2.3,19-5.044,28.211-8.236l-.321-.026,10.65-4.271a136.721,136.721,0,0,0,22.526-11.671l2.12-1.336,1.525,1.978c4.134,5.344,7.579,10.188,10.535,14.789l1.152,1.815.189-.263,1.588,3.035-.058-.01.542,1.073c.694,1.378,1.388,2.761,2.162,4.139Z" transform="translate(-49.457 -928.409)"/>
      <path id="パス_38" data-name="パス 38" d="M257.683,1030.48h-7.237L275.1,983.529l6.706-3.071,4.5-21.3c-10.7-5.48-25.845-8.321-45.078-8.447l-3.682,4.591c10.855,7.768,19.7,15.531,26.307,23.11l1.225,1.414-30.625,55.986-2.251-5.06a91.224,91.224,0,0,0-12.186-19.391l-4.371,1.136.137.657c1.189,5.659,2.177,11.308,3.135,16.783l.92,5.233-30.147,4.434,4.644-5.464c5.864-6.9,11.4-14.637,16.52-21.969l2.714-4.018c6.706-9.946,12.675-20.1,19.57-32.267l.41-.715,6.406-3.25-32.393-18.692a429.043,429.043,0,0,1-26.57,50.8l-1.609,2.64-7.042-5.58,1.246-2.03a414.564,414.564,0,0,0,26.618-50.774l.316-.731,6.769-4.46-25.971-14.132a396.331,396.331,0,0,1-28.474,65.516l22.316,19.607-1.357,1.967c-7.326,10.6-14.747,20.591-22.089,29.737l5.238,12.633,19.686-6.969,5.57-.836v61.824l-13.685,13.538,1.709-8.683c2.24-11.381,3.971-23.215,5.154-35.164l.084-.826,6.164-7.347L158,1069.184c-1.157,24.13-3.324,48.718-6.443,73.147l8.389,3.387,22.263-22.331V1165.4H214.2v-74.935l5.7-5.638.584,5.664c1.83,17.845,2.94,33.386,3.455,48.623l14.7-3,11.581,21.737,2.924-6.921,17.214-19.8,2.062,2.593c8.015,10.119,16.162,16.841,24.893,20.549,8.483,3.808,20.059,5.722,34.47,5.722h54.135a136.613,136.613,0,0,1,8.089-23.52H331.782c-23.778,0-41.313-3.713-52.131-11.018l-2.477-1.683L281.2,1119V1041.01l4.055-6.011-19.307-8.047Zm-9.3,91.3-8.052,6.637-.668-4.828a337.2,337.2,0,0,0-10.766-49.407l-10.435.989L214.2,1078v-20.343l4.281-5.3-12.286-6.937,14.842-2.109v5.885l.82-1.01v7.71c0,3.035.153,6.217.347,9.446l17.666-3.545a96.05,96.05,0,0,0-2.367-17.5l-.557-2.561,11.434-2.825Z" transform="translate(-151.559 -926.05)"/>
      <path id="パス_39" data-name="パス 39" d="M209.551,969.465H179.743l2.216,11.835,19.286-2.616,8.305-.03v16.768H183.12l2.585,12.066,18.216-2.84,5.63-.037v16.768H177.625l2.615,12.558,20.349-3.592,8.961-.045v19.466h35.543V1030.3H280.35l-2.683-14.033-21.841,5.038-10.732.074v-8.951l25.233-8.756L267.6,991.733l-22.5,3.622v-16.7h30.448L272.3,965.083l-20.907,4.322-6.3.06V955.909l4.206-6.036-39.749-3.22Z" transform="translate(-40.533 -850.702)"/>
    </g>
    <path id="パス_40" data-name="パス 40" d="M407.219,1111.852H345.689V978.38l80.1-33.292-3.56-12.123L396.2,937.42l-172.145.037,2.677,13.391,24.987-4.166,46.94-.037v165.208H203.239l2.467,13.112,27.964-4.7,206.41-.037-3.95-15.63Zm-6.806-165.208-54.724,21.564v-7.774l4.807-4.965-10.135-8.825Z" transform="translate(863.098 19.406)"/>
    <path id="パス_41" data-name="パス 41" d="M350.21,1030.248h14.484v-74.9l4.728-6.9-12.06-8.578L347.2,944.81H313.016l-44.021-4.565v52.962c0,40.356-5.159,82.383-15.336,124.969l4.77,1.43c28.879-36.494,46.067-70.97,51.069-102.479l.363-2.288h40.35Zm-39.6-24.056.226-2.914c.273-3.445.536-6.895.536-10.072V953.735H350.21v52.457Z" transform="translate(1077.852 48.821)"/>
    <path id="パス_42" data-name="パス 42" d="M389.615,1036.828l4.618-5.4-13.043-8.341,27.228-3.213-4.465-14.2-24.656,8.767-58.9,6.716V971.517l2.556-.168c28.416-1.851,51.915-6.958,69.86-15.163l1.031-.252,7.873-.321-20.9-27.049a304.423,304.423,0,0,1-73.447,38.031l-.573.2-14.558-1.394v61.1a589.3,589.3,0,0,1-16.951,138.659l4.739,1.236c26-42.149,39.572-87.311,40.366-134.261l.047-2.388,25.487-2.761-.095,3.114c-1.341,41.4-1.094,87.658.721,137.538h44.016c-1.93-51.484-2.261-94-.994-129.886Z" transform="translate(1169.999 0.655)"/>
    <path id="パス_43" data-name="パス 43" d="M284.045,943.666l55.764-.023-30,11.946,8.147,7.028,43.389-20.211L358.379,930.5l-25.391,4.188-76.98.037,2.434,12.386Z" transform="translate(1087.862 8.889)"/>
  </g>
</svg>
